<svg width="71" height="67" viewBox="0 0 71 67" fill="none" xmlns="http://www.w3.org/2000/svg">
<path d="M6.1 66.4197H64.82C68.19 66.4197 70.92 63.8725 70.92 60.7282V5.94097C70.92 2.79667 68.19 0.249512 64.82 0.249512H6.1C2.73 0.249512 0 2.79667 0 5.94097V60.7189C0 63.8725 2.73 66.4197 6.1 66.4197Z" fill="#F7941D"/>
<path d="M29.0701 5.6145H17.8701V16.0924H29.0701V5.6145Z" fill="white"/>
<path d="M38.8301 16.1016H29.0701V26.4955H17.8701V54.2903H38.8301C50.1101 54.2903 59.3001 45.7251 59.3001 35.1913C59.3001 24.6667 50.1101 16.1016 38.8301 16.1016ZM38.8301 43.8404H29.0701V26.5421H38.8301C43.9401 26.5421 48.1001 30.4235 48.1001 35.1913C48.1001 39.959 43.9401 43.8404 38.8301 43.8404Z" fill="white"/>
</svg>
